<svg viewBox="0 0 120 152" width="120" height="152" xmlns="http://www.w3.org/2000/svg" style="transform:scale(1.12);transform-origin:bottom center">
      <defs><clipPath id="cr2"><ellipse cx="60" cy="84" rx="37" ry="38"></ellipse></clipPath></defs>
      
      <ellipse cx="60" cy="126" rx="29.6" ry="6" fill="#1F2933" opacity=".14"></ellipse>
      <ellipse cx="43.349999999999994" cy="119" rx="7" ry="5" fill="#697781"></ellipse><ellipse cx="76.65" cy="119" rx="7" ry="5" fill="#697781"></ellipse>
      <g transform="rotate(0 60 84) translate(0 0) scale(1 1)" transform-origin="60px 84px">
        
        <ellipse cx="60" cy="84" rx="37" ry="38" fill="#9FB4C4" stroke="#505a62" stroke-width="2"></ellipse>
        <g clip-path="url(#cr2)"><circle cx="45.2" cy="80.2" r="5.92" fill="#697781"></circle><circle cx="72.95" cy="89.7" r="5.92" fill="#697781"></circle><circle cx="56.3" cy="101.1" r="5.92" fill="#697781"></circle><circle cx="65.55" cy="70.7" r="5.92" fill="#697781"></circle><circle cx="47.05" cy="99.2" r="5.92" fill="#697781"></circle>
          <ellipse cx="47.05" cy="66.9" rx="11.1" ry="8.36" fill="#c3d1da" opacity=".5"></ellipse>
        </g>
        <circle cx="48.9" cy="71.84" r="3.6" fill="#fbf9f3"></circle><circle cx="49.44" cy="72.272" r="1.8" fill="#23202b"></circle><circle cx="48.18" cy="70.94" r="0.648" fill="#fff"></circle><circle cx="71.1" cy="71.84" r="3.6" fill="#fbf9f3"></circle><circle cx="71.64" cy="72.272" r="1.8" fill="#23202b"></circle><circle cx="70.38" cy="70.94" r="0.648" fill="#fff"></circle>
        <path d="M55 82.1 Q60 86.1 65 82.1" stroke="#505a62" stroke-width="1.8" fill="none" stroke-linecap="round"></path>
        
      </g></svg>